<svg id="Warstwa_1" data-name="Warstwa 1" xmlns="http://www.w3.org/2000/svg" viewBox="0 0 32 32">
  <defs>
    <style>
      .cls-1 {
        fill: #3374ba;
      }

      .cls-2 {
        fill: #fff;
      }
    </style>
  </defs>
  <title>KjakKRZYSZTOF</title>
  <rect class="cls-1" width="32" height="32"/>
  <g>
    <path class="cls-2" d="M10.46,16.37l-1.3,1.35v3.6H7.75V10.67H9.15v5.27l4.74-5.27h1.7l-4.2,4.71,4.53,6H14.24Z" transform="translate(0)"/>
    <path class="cls-2" d="M20.29,16.58a6.61,6.61,0,0,1-2.63-1.28,2.44,2.44,0,0,1-.82-1.87,2.58,2.58,0,0,1,1-2.08,4,4,0,0,1,2.62-.82,4.37,4.37,0,0,1,2,.42,3.23,3.23,0,0,1,1.33,1.17,3,3,0,0,1,.47,1.63H22.81a2,2,0,0,0-.62-1.53,2.5,2.5,0,0,0-1.74-.55,2.56,2.56,0,0,0-1.62.46,1.53,1.53,0,0,0-.58,1.27,1.38,1.38,0,0,0,.55,1.1,5.43,5.43,0,0,0,1.88.83,8.77,8.77,0,0,1,2.08.82,3.17,3.17,0,0,1,1.11,1.05,2.69,2.69,0,0,1,.36,1.41,2.49,2.49,0,0,1-1,2.08,4.31,4.31,0,0,1-2.7.78,5,5,0,0,1-2.05-.42A3.45,3.45,0,0,1,17,19.9a2.81,2.81,0,0,1-.52-1.66h1.41a1.84,1.84,0,0,0,.71,1.53,3,3,0,0,0,1.91.56,2.77,2.77,0,0,0,1.71-.45,1.48,1.48,0,0,0,.59-1.24,1.45,1.45,0,0,0-.55-1.21A6.32,6.32,0,0,0,20.29,16.58Z" transform="translate(0)"/>
  </g>
</svg>
